<svg width="255" height="100" viewBox="0 0 255 100" fill="none" xmlns="http://www.w3.org/2000/svg">
<rect width="100" height="100" rx="29" fill="#FF3D3D"/>
<path d="M51.2537 22L51.5545 22.5128M51.2537 79L71.7274 70.2736C75.0544 68.8555 76.38 64.8381 74.5502 61.7184L51.5545 22.5128M51.2537 79L28.8981 70.2881C25.3445 68.9033 23.9678 64.598 26.0586 61.4083L51.5545 22.5128M51.2537 79L51.5545 22.5128" stroke="white" stroke-width="4"/>
<path d="M121.528 65V35.9091H133.006C135.212 35.9091 137.092 36.3305 138.645 37.1733C140.198 38.0066 141.382 39.1667 142.196 40.6534C143.02 42.1307 143.432 43.8352 143.432 45.767C143.432 47.6989 143.015 49.4034 142.182 50.8807C141.348 52.358 140.141 53.5085 138.56 54.3324C136.988 55.1562 135.084 55.5682 132.849 55.5682H125.534V50.6392H131.855C133.039 50.6392 134.014 50.4356 134.781 50.0284C135.558 49.6117 136.135 49.0388 136.514 48.3097C136.902 47.571 137.097 46.7235 137.097 45.767C137.097 44.8011 136.902 43.9583 136.514 43.2386C136.135 42.5095 135.558 41.946 134.781 41.5483C134.005 41.1411 133.02 40.9375 131.827 40.9375H127.679V65H121.528ZM147.313 65V43.1818H153.18V46.9886H153.407C153.805 45.6345 154.472 44.6117 155.41 43.9205C156.347 43.2197 157.427 42.8693 158.648 42.8693C158.951 42.8693 159.278 42.8883 159.629 42.9261C159.979 42.964 160.287 43.0161 160.552 43.0824V48.4517C160.268 48.3665 159.875 48.2907 159.373 48.2244C158.871 48.1581 158.412 48.125 157.995 48.125C157.105 48.125 156.309 48.3191 155.609 48.7074C154.917 49.0862 154.368 49.6165 153.961 50.2983C153.563 50.9801 153.364 51.7661 153.364 52.6562V65H147.313ZM163.68 65V43.1818H169.732V65H163.68ZM166.72 40.3693C165.821 40.3693 165.049 40.071 164.405 39.4744C163.77 38.8684 163.453 38.1439 163.453 37.3011C163.453 36.4678 163.77 35.7528 164.405 35.1562C165.049 34.5502 165.821 34.2472 166.72 34.2472C167.62 34.2472 168.387 34.5502 169.021 35.1562C169.665 35.7528 169.987 36.4678 169.987 37.3011C169.987 38.1439 169.665 38.8684 169.021 39.4744C168.387 40.071 167.62 40.3693 166.72 40.3693ZM192.732 49.4034L187.192 49.7443C187.098 49.2708 186.894 48.8447 186.582 48.4659C186.269 48.0777 185.857 47.7699 185.346 47.5426C184.844 47.3059 184.243 47.1875 183.542 47.1875C182.604 47.1875 181.814 47.3864 181.17 47.7841C180.526 48.1723 180.204 48.6932 180.204 49.3466C180.204 49.8674 180.412 50.3078 180.829 50.6676C181.246 51.0275 181.96 51.3163 182.974 51.5341L186.923 52.3295C189.044 52.7652 190.625 53.4659 191.667 54.4318C192.709 55.3977 193.229 56.6667 193.229 58.2386C193.229 59.6686 192.808 60.9233 191.965 62.0028C191.132 63.0824 189.986 63.9252 188.528 64.5312C187.079 65.1278 185.407 65.4261 183.513 65.4261C180.625 65.4261 178.324 64.8248 176.61 63.6222C174.906 62.41 173.906 60.7623 173.613 58.679L179.565 58.3665C179.745 59.2472 180.18 59.9195 180.871 60.3835C181.563 60.8381 182.448 61.0653 183.528 61.0653C184.588 61.0653 185.441 60.8617 186.085 60.4545C186.738 60.0379 187.069 59.5028 187.079 58.8494C187.069 58.3002 186.837 57.8504 186.383 57.5C185.928 57.1402 185.228 56.8655 184.281 56.6761L180.502 55.9233C178.371 55.4972 176.785 54.7585 175.744 53.7074C174.711 52.6562 174.195 51.3163 174.195 49.6875C174.195 48.286 174.574 47.0786 175.332 46.0653C176.099 45.0521 177.174 44.2708 178.556 43.7216C179.948 43.1723 181.577 42.8977 183.442 42.8977C186.198 42.8977 188.367 43.4801 189.948 44.6449C191.539 45.8097 192.467 47.3958 192.732 49.4034ZM197.04 65V43.1818H202.807V47.0312H203.062C203.517 45.7528 204.275 44.7443 205.335 44.0057C206.396 43.267 207.665 42.8977 209.142 42.8977C210.638 42.8977 211.912 43.2718 212.963 44.0199C214.014 44.7585 214.715 45.7623 215.065 47.0312H215.293C215.738 45.7812 216.543 44.7822 217.707 44.0341C218.882 43.2765 220.269 42.8977 221.869 42.8977C223.905 42.8977 225.558 43.5464 226.827 44.8438C228.105 46.1316 228.744 47.9593 228.744 50.3267V65H222.707V51.5199C222.707 50.3078 222.385 49.3987 221.741 48.7926C221.098 48.1866 220.293 47.8835 219.327 47.8835C218.228 47.8835 217.371 48.2339 216.756 48.9347C216.14 49.6259 215.832 50.5398 215.832 51.6761V65H209.966V51.392C209.966 50.322 209.658 49.4697 209.043 48.8352C208.437 48.2008 207.636 47.8835 206.642 47.8835C205.97 47.8835 205.364 48.054 204.824 48.3949C204.294 48.7263 203.872 49.1951 203.56 49.8011C203.247 50.3977 203.091 51.0985 203.091 51.9034V65H197.04ZM239.746 65.4119C238.354 65.4119 237.113 65.1705 236.024 64.6875C234.935 64.1951 234.073 63.4706 233.439 62.5142C232.814 61.5483 232.501 60.3456 232.501 58.9062C232.501 57.6941 232.724 56.6761 233.169 55.8523C233.614 55.0284 234.22 54.3655 234.987 53.8636C235.754 53.3617 236.625 52.983 237.601 52.7273C238.586 52.4716 239.618 52.2917 240.697 52.1875C241.966 52.0549 242.989 51.9318 243.766 51.8182C244.542 51.6951 245.106 51.5152 245.456 51.2784C245.806 51.0417 245.982 50.6913 245.982 50.2273V50.142C245.982 49.2424 245.697 48.5464 245.129 48.054C244.571 47.5616 243.775 47.3153 242.743 47.3153C241.654 47.3153 240.787 47.5568 240.143 48.0398C239.5 48.5133 239.073 49.1098 238.865 49.8295L233.268 49.375C233.553 48.0492 234.111 46.9034 234.945 45.9375C235.778 44.9621 236.853 44.214 238.169 43.6932C239.495 43.1629 241.029 42.8977 242.771 42.8977C243.983 42.8977 245.143 43.0398 246.251 43.3239C247.369 43.608 248.358 44.0483 249.22 44.6449C250.091 45.2415 250.778 46.0085 251.28 46.946C251.782 47.8741 252.033 48.9867 252.033 50.2841V65H246.294V61.9744H246.124C245.773 62.6562 245.304 63.2576 244.717 63.7784C244.13 64.2898 243.425 64.6922 242.601 64.9858C241.777 65.2699 240.825 65.4119 239.746 65.4119ZM241.479 61.2358C242.369 61.2358 243.155 61.0606 243.837 60.7102C244.518 60.3504 245.054 59.8674 245.442 59.2614C245.83 58.6553 246.024 57.9687 246.024 57.2017V54.8864C245.835 55.0095 245.574 55.1231 245.243 55.2273C244.921 55.322 244.556 55.4119 244.149 55.4972C243.742 55.5729 243.335 55.6439 242.928 55.7102C242.52 55.767 242.151 55.8191 241.82 55.8665C241.109 55.9706 240.489 56.1364 239.959 56.3636C239.429 56.5909 239.017 56.8987 238.723 57.2869C238.429 57.6657 238.283 58.1392 238.283 58.7074C238.283 59.5312 238.581 60.161 239.178 60.5966C239.784 61.0227 240.551 61.2358 241.479 61.2358Z" fill="white"/>
</svg>
